%TF.GenerationSoftware,KiCad,Pcbnew,9.0.0*%
%TF.CreationDate,2025-03-31T12:00:39+05:30*%
%TF.ProjectId,ass kicad,61737320-6b69-4636-9164-2e6b69636164,rev?*%
%TF.SameCoordinates,Original*%
%TF.FileFunction,Legend,Top*%
%TF.FilePolarity,Positive*%
%FSLAX46Y46*%
G04 Gerber Fmt 4.6, Leading zero omitted, Abs format (unit mm)*
G04 Created by KiCad (PCBNEW 9.0.0) date 2025-03-31 12:00:39*
%MOMM*%
%LPD*%
G01*
G04 APERTURE LIST*
%ADD10C,0.150000*%
%ADD11C,0.120000*%
G04 APERTURE END LIST*
D10*
X158058333Y-94429580D02*
X158010714Y-94477200D01*
X158010714Y-94477200D02*
X157867857Y-94524819D01*
X157867857Y-94524819D02*
X157772619Y-94524819D01*
X157772619Y-94524819D02*
X157629762Y-94477200D01*
X157629762Y-94477200D02*
X157534524Y-94381961D01*
X157534524Y-94381961D02*
X157486905Y-94286723D01*
X157486905Y-94286723D02*
X157439286Y-94096247D01*
X157439286Y-94096247D02*
X157439286Y-93953390D01*
X157439286Y-93953390D02*
X157486905Y-93762914D01*
X157486905Y-93762914D02*
X157534524Y-93667676D01*
X157534524Y-93667676D02*
X157629762Y-93572438D01*
X157629762Y-93572438D02*
X157772619Y-93524819D01*
X157772619Y-93524819D02*
X157867857Y-93524819D01*
X157867857Y-93524819D02*
X158010714Y-93572438D01*
X158010714Y-93572438D02*
X158058333Y-93620057D01*
X158915476Y-93524819D02*
X158725000Y-93524819D01*
X158725000Y-93524819D02*
X158629762Y-93572438D01*
X158629762Y-93572438D02*
X158582143Y-93620057D01*
X158582143Y-93620057D02*
X158486905Y-93762914D01*
X158486905Y-93762914D02*
X158439286Y-93953390D01*
X158439286Y-93953390D02*
X158439286Y-94334342D01*
X158439286Y-94334342D02*
X158486905Y-94429580D01*
X158486905Y-94429580D02*
X158534524Y-94477200D01*
X158534524Y-94477200D02*
X158629762Y-94524819D01*
X158629762Y-94524819D02*
X158820238Y-94524819D01*
X158820238Y-94524819D02*
X158915476Y-94477200D01*
X158915476Y-94477200D02*
X158963095Y-94429580D01*
X158963095Y-94429580D02*
X159010714Y-94334342D01*
X159010714Y-94334342D02*
X159010714Y-94096247D01*
X159010714Y-94096247D02*
X158963095Y-94001009D01*
X158963095Y-94001009D02*
X158915476Y-93953390D01*
X158915476Y-93953390D02*
X158820238Y-93905771D01*
X158820238Y-93905771D02*
X158629762Y-93905771D01*
X158629762Y-93905771D02*
X158534524Y-93953390D01*
X158534524Y-93953390D02*
X158486905Y-94001009D01*
X158486905Y-94001009D02*
X158439286Y-94096247D01*
X158416666Y-78334819D02*
X158416666Y-79049104D01*
X158416666Y-79049104D02*
X158369047Y-79191961D01*
X158369047Y-79191961D02*
X158273809Y-79287200D01*
X158273809Y-79287200D02*
X158130952Y-79334819D01*
X158130952Y-79334819D02*
X158035714Y-79334819D01*
X158797619Y-78334819D02*
X159416666Y-78334819D01*
X159416666Y-78334819D02*
X159083333Y-78715771D01*
X159083333Y-78715771D02*
X159226190Y-78715771D01*
X159226190Y-78715771D02*
X159321428Y-78763390D01*
X159321428Y-78763390D02*
X159369047Y-78811009D01*
X159369047Y-78811009D02*
X159416666Y-78906247D01*
X159416666Y-78906247D02*
X159416666Y-79144342D01*
X159416666Y-79144342D02*
X159369047Y-79239580D01*
X159369047Y-79239580D02*
X159321428Y-79287200D01*
X159321428Y-79287200D02*
X159226190Y-79334819D01*
X159226190Y-79334819D02*
X158940476Y-79334819D01*
X158940476Y-79334819D02*
X158845238Y-79287200D01*
X158845238Y-79287200D02*
X158797619Y-79239580D01*
X175705833Y-90869580D02*
X175658214Y-90917200D01*
X175658214Y-90917200D02*
X175515357Y-90964819D01*
X175515357Y-90964819D02*
X175420119Y-90964819D01*
X175420119Y-90964819D02*
X175277262Y-90917200D01*
X175277262Y-90917200D02*
X175182024Y-90821961D01*
X175182024Y-90821961D02*
X175134405Y-90726723D01*
X175134405Y-90726723D02*
X175086786Y-90536247D01*
X175086786Y-90536247D02*
X175086786Y-90393390D01*
X175086786Y-90393390D02*
X175134405Y-90202914D01*
X175134405Y-90202914D02*
X175182024Y-90107676D01*
X175182024Y-90107676D02*
X175277262Y-90012438D01*
X175277262Y-90012438D02*
X175420119Y-89964819D01*
X175420119Y-89964819D02*
X175515357Y-89964819D01*
X175515357Y-89964819D02*
X175658214Y-90012438D01*
X175658214Y-90012438D02*
X175705833Y-90060057D01*
X176039167Y-89964819D02*
X176658214Y-89964819D01*
X176658214Y-89964819D02*
X176324881Y-90345771D01*
X176324881Y-90345771D02*
X176467738Y-90345771D01*
X176467738Y-90345771D02*
X176562976Y-90393390D01*
X176562976Y-90393390D02*
X176610595Y-90441009D01*
X176610595Y-90441009D02*
X176658214Y-90536247D01*
X176658214Y-90536247D02*
X176658214Y-90774342D01*
X176658214Y-90774342D02*
X176610595Y-90869580D01*
X176610595Y-90869580D02*
X176562976Y-90917200D01*
X176562976Y-90917200D02*
X176467738Y-90964819D01*
X176467738Y-90964819D02*
X176182024Y-90964819D01*
X176182024Y-90964819D02*
X176086786Y-90917200D01*
X176086786Y-90917200D02*
X176039167Y-90869580D01*
X120333333Y-71554819D02*
X119857143Y-71554819D01*
X119857143Y-71554819D02*
X119857143Y-70554819D01*
X121190476Y-71554819D02*
X120619048Y-71554819D01*
X120904762Y-71554819D02*
X120904762Y-70554819D01*
X120904762Y-70554819D02*
X120809524Y-70697676D01*
X120809524Y-70697676D02*
X120714286Y-70792914D01*
X120714286Y-70792914D02*
X120619048Y-70840533D01*
X153363095Y-118879819D02*
X153363095Y-119689342D01*
X153363095Y-119689342D02*
X153410714Y-119784580D01*
X153410714Y-119784580D02*
X153458333Y-119832200D01*
X153458333Y-119832200D02*
X153553571Y-119879819D01*
X153553571Y-119879819D02*
X153744047Y-119879819D01*
X153744047Y-119879819D02*
X153839285Y-119832200D01*
X153839285Y-119832200D02*
X153886904Y-119784580D01*
X153886904Y-119784580D02*
X153934523Y-119689342D01*
X153934523Y-119689342D02*
X153934523Y-118879819D01*
X154363095Y-118975057D02*
X154410714Y-118927438D01*
X154410714Y-118927438D02*
X154505952Y-118879819D01*
X154505952Y-118879819D02*
X154744047Y-118879819D01*
X154744047Y-118879819D02*
X154839285Y-118927438D01*
X154839285Y-118927438D02*
X154886904Y-118975057D01*
X154886904Y-118975057D02*
X154934523Y-119070295D01*
X154934523Y-119070295D02*
X154934523Y-119165533D01*
X154934523Y-119165533D02*
X154886904Y-119308390D01*
X154886904Y-119308390D02*
X154315476Y-119879819D01*
X154315476Y-119879819D02*
X154934523Y-119879819D01*
X112216666Y-95172319D02*
X112216666Y-95886604D01*
X112216666Y-95886604D02*
X112169047Y-96029461D01*
X112169047Y-96029461D02*
X112073809Y-96124700D01*
X112073809Y-96124700D02*
X111930952Y-96172319D01*
X111930952Y-96172319D02*
X111835714Y-96172319D01*
X112645238Y-95267557D02*
X112692857Y-95219938D01*
X112692857Y-95219938D02*
X112788095Y-95172319D01*
X112788095Y-95172319D02*
X113026190Y-95172319D01*
X113026190Y-95172319D02*
X113121428Y-95219938D01*
X113121428Y-95219938D02*
X113169047Y-95267557D01*
X113169047Y-95267557D02*
X113216666Y-95362795D01*
X113216666Y-95362795D02*
X113216666Y-95458033D01*
X113216666Y-95458033D02*
X113169047Y-95600890D01*
X113169047Y-95600890D02*
X112597619Y-96172319D01*
X112597619Y-96172319D02*
X113216666Y-96172319D01*
X154314286Y-61154819D02*
X154885714Y-61154819D01*
X154600000Y-62154819D02*
X154600000Y-61154819D01*
X155219048Y-62154819D02*
X155219048Y-61154819D01*
X155219048Y-61631009D02*
X155790476Y-61631009D01*
X155790476Y-62154819D02*
X155790476Y-61154819D01*
X156790476Y-62154819D02*
X156219048Y-62154819D01*
X156504762Y-62154819D02*
X156504762Y-61154819D01*
X156504762Y-61154819D02*
X156409524Y-61297676D01*
X156409524Y-61297676D02*
X156314286Y-61392914D01*
X156314286Y-61392914D02*
X156219048Y-61440533D01*
X143383333Y-110679580D02*
X143335714Y-110727200D01*
X143335714Y-110727200D02*
X143192857Y-110774819D01*
X143192857Y-110774819D02*
X143097619Y-110774819D01*
X143097619Y-110774819D02*
X142954762Y-110727200D01*
X142954762Y-110727200D02*
X142859524Y-110631961D01*
X142859524Y-110631961D02*
X142811905Y-110536723D01*
X142811905Y-110536723D02*
X142764286Y-110346247D01*
X142764286Y-110346247D02*
X142764286Y-110203390D01*
X142764286Y-110203390D02*
X142811905Y-110012914D01*
X142811905Y-110012914D02*
X142859524Y-109917676D01*
X142859524Y-109917676D02*
X142954762Y-109822438D01*
X142954762Y-109822438D02*
X143097619Y-109774819D01*
X143097619Y-109774819D02*
X143192857Y-109774819D01*
X143192857Y-109774819D02*
X143335714Y-109822438D01*
X143335714Y-109822438D02*
X143383333Y-109870057D01*
X144288095Y-109774819D02*
X143811905Y-109774819D01*
X143811905Y-109774819D02*
X143764286Y-110251009D01*
X143764286Y-110251009D02*
X143811905Y-110203390D01*
X143811905Y-110203390D02*
X143907143Y-110155771D01*
X143907143Y-110155771D02*
X144145238Y-110155771D01*
X144145238Y-110155771D02*
X144240476Y-110203390D01*
X144240476Y-110203390D02*
X144288095Y-110251009D01*
X144288095Y-110251009D02*
X144335714Y-110346247D01*
X144335714Y-110346247D02*
X144335714Y-110584342D01*
X144335714Y-110584342D02*
X144288095Y-110679580D01*
X144288095Y-110679580D02*
X144240476Y-110727200D01*
X144240476Y-110727200D02*
X144145238Y-110774819D01*
X144145238Y-110774819D02*
X143907143Y-110774819D01*
X143907143Y-110774819D02*
X143811905Y-110727200D01*
X143811905Y-110727200D02*
X143764286Y-110679580D01*
X168974405Y-88024819D02*
X168974405Y-87024819D01*
X168974405Y-87024819D02*
X169212500Y-87024819D01*
X169212500Y-87024819D02*
X169355357Y-87072438D01*
X169355357Y-87072438D02*
X169450595Y-87167676D01*
X169450595Y-87167676D02*
X169498214Y-87262914D01*
X169498214Y-87262914D02*
X169545833Y-87453390D01*
X169545833Y-87453390D02*
X169545833Y-87596247D01*
X169545833Y-87596247D02*
X169498214Y-87786723D01*
X169498214Y-87786723D02*
X169450595Y-87881961D01*
X169450595Y-87881961D02*
X169355357Y-87977200D01*
X169355357Y-87977200D02*
X169212500Y-88024819D01*
X169212500Y-88024819D02*
X168974405Y-88024819D01*
X170498214Y-88024819D02*
X169926786Y-88024819D01*
X170212500Y-88024819D02*
X170212500Y-87024819D01*
X170212500Y-87024819D02*
X170117262Y-87167676D01*
X170117262Y-87167676D02*
X170022024Y-87262914D01*
X170022024Y-87262914D02*
X169926786Y-87310533D01*
X130775595Y-111874819D02*
X130775595Y-112684342D01*
X130775595Y-112684342D02*
X130823214Y-112779580D01*
X130823214Y-112779580D02*
X130870833Y-112827200D01*
X130870833Y-112827200D02*
X130966071Y-112874819D01*
X130966071Y-112874819D02*
X131156547Y-112874819D01*
X131156547Y-112874819D02*
X131251785Y-112827200D01*
X131251785Y-112827200D02*
X131299404Y-112779580D01*
X131299404Y-112779580D02*
X131347023Y-112684342D01*
X131347023Y-112684342D02*
X131347023Y-111874819D01*
X132347023Y-112874819D02*
X131775595Y-112874819D01*
X132061309Y-112874819D02*
X132061309Y-111874819D01*
X132061309Y-111874819D02*
X131966071Y-112017676D01*
X131966071Y-112017676D02*
X131870833Y-112112914D01*
X131870833Y-112112914D02*
X131775595Y-112160533D01*
X167853333Y-106199580D02*
X167805714Y-106247200D01*
X167805714Y-106247200D02*
X167662857Y-106294819D01*
X167662857Y-106294819D02*
X167567619Y-106294819D01*
X167567619Y-106294819D02*
X167424762Y-106247200D01*
X167424762Y-106247200D02*
X167329524Y-106151961D01*
X167329524Y-106151961D02*
X167281905Y-106056723D01*
X167281905Y-106056723D02*
X167234286Y-105866247D01*
X167234286Y-105866247D02*
X167234286Y-105723390D01*
X167234286Y-105723390D02*
X167281905Y-105532914D01*
X167281905Y-105532914D02*
X167329524Y-105437676D01*
X167329524Y-105437676D02*
X167424762Y-105342438D01*
X167424762Y-105342438D02*
X167567619Y-105294819D01*
X167567619Y-105294819D02*
X167662857Y-105294819D01*
X167662857Y-105294819D02*
X167805714Y-105342438D01*
X167805714Y-105342438D02*
X167853333Y-105390057D01*
X168234286Y-105390057D02*
X168281905Y-105342438D01*
X168281905Y-105342438D02*
X168377143Y-105294819D01*
X168377143Y-105294819D02*
X168615238Y-105294819D01*
X168615238Y-105294819D02*
X168710476Y-105342438D01*
X168710476Y-105342438D02*
X168758095Y-105390057D01*
X168758095Y-105390057D02*
X168805714Y-105485295D01*
X168805714Y-105485295D02*
X168805714Y-105580533D01*
X168805714Y-105580533D02*
X168758095Y-105723390D01*
X168758095Y-105723390D02*
X168186667Y-106294819D01*
X168186667Y-106294819D02*
X168805714Y-106294819D01*
X130383333Y-74179580D02*
X130335714Y-74227200D01*
X130335714Y-74227200D02*
X130192857Y-74274819D01*
X130192857Y-74274819D02*
X130097619Y-74274819D01*
X130097619Y-74274819D02*
X129954762Y-74227200D01*
X129954762Y-74227200D02*
X129859524Y-74131961D01*
X129859524Y-74131961D02*
X129811905Y-74036723D01*
X129811905Y-74036723D02*
X129764286Y-73846247D01*
X129764286Y-73846247D02*
X129764286Y-73703390D01*
X129764286Y-73703390D02*
X129811905Y-73512914D01*
X129811905Y-73512914D02*
X129859524Y-73417676D01*
X129859524Y-73417676D02*
X129954762Y-73322438D01*
X129954762Y-73322438D02*
X130097619Y-73274819D01*
X130097619Y-73274819D02*
X130192857Y-73274819D01*
X130192857Y-73274819D02*
X130335714Y-73322438D01*
X130335714Y-73322438D02*
X130383333Y-73370057D01*
X131240476Y-73608152D02*
X131240476Y-74274819D01*
X131002381Y-73227200D02*
X130764286Y-73941485D01*
X130764286Y-73941485D02*
X131383333Y-73941485D01*
X158293333Y-102869580D02*
X158245714Y-102917200D01*
X158245714Y-102917200D02*
X158102857Y-102964819D01*
X158102857Y-102964819D02*
X158007619Y-102964819D01*
X158007619Y-102964819D02*
X157864762Y-102917200D01*
X157864762Y-102917200D02*
X157769524Y-102821961D01*
X157769524Y-102821961D02*
X157721905Y-102726723D01*
X157721905Y-102726723D02*
X157674286Y-102536247D01*
X157674286Y-102536247D02*
X157674286Y-102393390D01*
X157674286Y-102393390D02*
X157721905Y-102202914D01*
X157721905Y-102202914D02*
X157769524Y-102107676D01*
X157769524Y-102107676D02*
X157864762Y-102012438D01*
X157864762Y-102012438D02*
X158007619Y-101964819D01*
X158007619Y-101964819D02*
X158102857Y-101964819D01*
X158102857Y-101964819D02*
X158245714Y-102012438D01*
X158245714Y-102012438D02*
X158293333Y-102060057D01*
X159245714Y-102964819D02*
X158674286Y-102964819D01*
X158960000Y-102964819D02*
X158960000Y-101964819D01*
X158960000Y-101964819D02*
X158864762Y-102107676D01*
X158864762Y-102107676D02*
X158769524Y-102202914D01*
X158769524Y-102202914D02*
X158674286Y-102250533D01*
X152508333Y-102524819D02*
X152175000Y-102048628D01*
X151936905Y-102524819D02*
X151936905Y-101524819D01*
X151936905Y-101524819D02*
X152317857Y-101524819D01*
X152317857Y-101524819D02*
X152413095Y-101572438D01*
X152413095Y-101572438D02*
X152460714Y-101620057D01*
X152460714Y-101620057D02*
X152508333Y-101715295D01*
X152508333Y-101715295D02*
X152508333Y-101858152D01*
X152508333Y-101858152D02*
X152460714Y-101953390D01*
X152460714Y-101953390D02*
X152413095Y-102001009D01*
X152413095Y-102001009D02*
X152317857Y-102048628D01*
X152317857Y-102048628D02*
X151936905Y-102048628D01*
X153460714Y-102524819D02*
X152889286Y-102524819D01*
X153175000Y-102524819D02*
X153175000Y-101524819D01*
X153175000Y-101524819D02*
X153079762Y-101667676D01*
X153079762Y-101667676D02*
X152984524Y-101762914D01*
X152984524Y-101762914D02*
X152889286Y-101810533D01*
X133916666Y-58834819D02*
X133916666Y-59549104D01*
X133916666Y-59549104D02*
X133869047Y-59691961D01*
X133869047Y-59691961D02*
X133773809Y-59787200D01*
X133773809Y-59787200D02*
X133630952Y-59834819D01*
X133630952Y-59834819D02*
X133535714Y-59834819D01*
X134821428Y-59168152D02*
X134821428Y-59834819D01*
X134583333Y-58787200D02*
X134345238Y-59501485D01*
X134345238Y-59501485D02*
X134964285Y-59501485D01*
X165236905Y-93804819D02*
X165236905Y-92804819D01*
X165236905Y-92804819D02*
X165475000Y-92804819D01*
X165475000Y-92804819D02*
X165617857Y-92852438D01*
X165617857Y-92852438D02*
X165713095Y-92947676D01*
X165713095Y-92947676D02*
X165760714Y-93042914D01*
X165760714Y-93042914D02*
X165808333Y-93233390D01*
X165808333Y-93233390D02*
X165808333Y-93376247D01*
X165808333Y-93376247D02*
X165760714Y-93566723D01*
X165760714Y-93566723D02*
X165713095Y-93661961D01*
X165713095Y-93661961D02*
X165617857Y-93757200D01*
X165617857Y-93757200D02*
X165475000Y-93804819D01*
X165475000Y-93804819D02*
X165236905Y-93804819D01*
X166189286Y-92900057D02*
X166236905Y-92852438D01*
X166236905Y-92852438D02*
X166332143Y-92804819D01*
X166332143Y-92804819D02*
X166570238Y-92804819D01*
X166570238Y-92804819D02*
X166665476Y-92852438D01*
X166665476Y-92852438D02*
X166713095Y-92900057D01*
X166713095Y-92900057D02*
X166760714Y-92995295D01*
X166760714Y-92995295D02*
X166760714Y-93090533D01*
X166760714Y-93090533D02*
X166713095Y-93233390D01*
X166713095Y-93233390D02*
X166141667Y-93804819D01*
X166141667Y-93804819D02*
X166760714Y-93804819D01*
D11*
%TO.C,C6*%
X158084420Y-94990000D02*
X158365580Y-94990000D01*
X158084420Y-96010000D02*
X158365580Y-96010000D01*
%TO.C,J3*%
X153380000Y-79880000D02*
X153380000Y-87920000D01*
X153380000Y-79880000D02*
X164120000Y-79880000D01*
X153380000Y-83500000D02*
X154620000Y-83500000D01*
X153380000Y-84500000D02*
X154620000Y-84500000D01*
X153380000Y-85800000D02*
X154620000Y-85800000D01*
X153380000Y-87920000D02*
X156200000Y-87920000D01*
X156800000Y-87920000D02*
X164120000Y-87920000D01*
X158380000Y-83500000D02*
X159688000Y-83500000D01*
X158380000Y-84500000D02*
X159688000Y-84500000D01*
X158380000Y-85800000D02*
X160957000Y-85800000D01*
X160056000Y-85204000D02*
X160013000Y-85247000D01*
X160295000Y-85443000D02*
X160252000Y-85486000D01*
X162043000Y-85800000D02*
X164120000Y-85800000D01*
X162747000Y-82514000D02*
X162704000Y-82557000D01*
X162987000Y-82753000D02*
X162944000Y-82796000D01*
X163312000Y-83500000D02*
X164120000Y-83500000D01*
X163312000Y-84500000D02*
X164120000Y-84500000D01*
X164120000Y-79880000D02*
X164120000Y-87920000D01*
X154620000Y-84554000D02*
G75*
G02*
X154620139Y-83445528I1879990J554000D01*
G01*
X155946000Y-82120000D02*
G75*
G02*
X157054472Y-82120139I554000J-1880000D01*
G01*
X157054000Y-85880000D02*
G75*
G02*
X155945528Y-85879861I-554000J1879990D01*
G01*
X158380000Y-83446000D02*
G75*
G02*
X158379861Y-84554472I-1880000J-554000D01*
G01*
X163460000Y-84000000D02*
G75*
G02*
X159540000Y-84000000I-1960000J0D01*
G01*
X159540000Y-84000000D02*
G75*
G02*
X163460000Y-84000000I1960000J0D01*
G01*
X156940000Y-88530000D02*
X156060000Y-88530000D01*
X156500000Y-87920000D01*
X156940000Y-88530000D01*
G36*
X156940000Y-88530000D02*
G01*
X156060000Y-88530000D01*
X156500000Y-87920000D01*
X156940000Y-88530000D01*
G37*
%TO.C,C3*%
X175770531Y-91380000D02*
X175974469Y-91380000D01*
X175770531Y-92620000D02*
X175974469Y-92620000D01*
%TO.C,L1*%
X114200000Y-72200000D02*
X126800000Y-72200000D01*
X114200000Y-75200000D02*
X114200000Y-72200000D01*
X114200000Y-84800000D02*
X114200000Y-81800000D01*
X126800000Y-72200000D02*
X126800000Y-75200000D01*
X126800000Y-81800000D02*
X126800000Y-84800000D01*
X126800000Y-84800000D02*
X114200000Y-84800000D01*
%TO.C,U2*%
X153515000Y-118545000D02*
X154515000Y-118545000D01*
X154515000Y-117105000D02*
X153515000Y-117105000D01*
X153225000Y-117185000D02*
X152945000Y-117185000D01*
X153225000Y-116905000D01*
X153225000Y-117185000D01*
G36*
X153225000Y-117185000D02*
G01*
X152945000Y-117185000D01*
X153225000Y-116905000D01*
X153225000Y-117185000D01*
G37*
%TO.C,J2*%
X111240000Y-96947500D02*
X114200000Y-96947500D01*
X111240000Y-98767500D02*
X111240000Y-96947500D01*
X114800000Y-96947500D02*
X124760000Y-96947500D01*
X124760000Y-98767500D02*
X124760000Y-96947500D01*
X114500000Y-96947500D02*
X114160000Y-96477500D01*
X114840000Y-96477500D01*
X114500000Y-96947500D01*
G36*
X114500000Y-96947500D02*
G01*
X114160000Y-96477500D01*
X114840000Y-96477500D01*
X114500000Y-96947500D01*
G37*
%TO.C,TH1*%
X152800000Y-62500000D02*
X158200000Y-62500000D01*
X158200000Y-73500000D02*
X152700000Y-73500000D01*
X152700000Y-73500000D02*
G75*
G02*
X152780295Y-62459855I2800000J5500000D01*
G01*
X158200000Y-62500000D02*
G75*
G02*
X158160072Y-73520145I-2800000J-5500000D01*
G01*
%TO.C,C5*%
X143288748Y-111265000D02*
X143811252Y-111265000D01*
X143288748Y-112735000D02*
X143811252Y-112735000D01*
%TO.C,D1*%
X168227500Y-88265000D02*
X168227500Y-89735000D01*
X168227500Y-89735000D02*
X170512500Y-89735000D01*
X170512500Y-88265000D02*
X168227500Y-88265000D01*
%TO.C,U1*%
X129427500Y-114115000D02*
X129427500Y-113880000D01*
X129427500Y-117860000D02*
X129427500Y-117385000D01*
X129902500Y-113640000D02*
X129727500Y-113640000D01*
X129902500Y-117860000D02*
X129427500Y-117860000D01*
X133172500Y-113640000D02*
X133647500Y-113640000D01*
X133172500Y-117860000D02*
X133647500Y-117860000D01*
X133647500Y-113640000D02*
X133647500Y-114115000D01*
X133647500Y-117860000D02*
X133647500Y-117385000D01*
X129427500Y-113640000D02*
X129187500Y-113310000D01*
X129667500Y-113310000D01*
X129427500Y-113640000D01*
G36*
X129427500Y-113640000D02*
G01*
X129187500Y-113310000D01*
X129667500Y-113310000D01*
X129427500Y-113640000D01*
G37*
%TO.C,C2*%
X167912164Y-106640000D02*
X168127836Y-106640000D01*
X167912164Y-107360000D02*
X168127836Y-107360000D01*
%TO.C,C4*%
X130288748Y-74765000D02*
X130811252Y-74765000D01*
X130288748Y-76235000D02*
X130811252Y-76235000D01*
%TO.C,R1*%
X152437742Y-102977500D02*
X152912258Y-102977500D01*
X152437742Y-104022500D02*
X152912258Y-104022500D01*
%TO.C,J4*%
X121380000Y-60380000D02*
X121380000Y-68420000D01*
X121380000Y-60380000D02*
X147120000Y-60380000D01*
X121380000Y-64000000D02*
X122620000Y-64000000D01*
X121380000Y-65000000D02*
X122620000Y-65000000D01*
X121380000Y-66300000D02*
X122620000Y-66300000D01*
X121380000Y-68420000D02*
X124200000Y-68420000D01*
X124800000Y-68420000D02*
X147120000Y-68420000D01*
X126380000Y-64000000D02*
X127688000Y-64000000D01*
X126380000Y-65000000D02*
X127688000Y-65000000D01*
X126380000Y-66300000D02*
X128957000Y-66300000D01*
X128056000Y-65704000D02*
X128013000Y-65747000D01*
X128295000Y-65943000D02*
X128252000Y-65986000D01*
X130043000Y-66300000D02*
X133957000Y-66300000D01*
X130747000Y-63014000D02*
X130704000Y-63057000D01*
X130987000Y-63253000D02*
X130944000Y-63296000D01*
X131312000Y-64000000D02*
X132688000Y-64000000D01*
X131312000Y-65000000D02*
X132688000Y-65000000D01*
X133056000Y-65704000D02*
X133013000Y-65747000D01*
X133295000Y-65943000D02*
X133252000Y-65986000D01*
X135043000Y-66300000D02*
X138957000Y-66300000D01*
X135747000Y-63014000D02*
X135704000Y-63057000D01*
X135987000Y-63253000D02*
X135944000Y-63296000D01*
X136312000Y-64000000D02*
X137688000Y-64000000D01*
X136312000Y-65000000D02*
X137688000Y-65000000D01*
X138056000Y-65704000D02*
X138013000Y-65747000D01*
X138295000Y-65943000D02*
X138252000Y-65986000D01*
X140043000Y-66300000D02*
X143957000Y-66300000D01*
X140747000Y-63014000D02*
X140704000Y-63057000D01*
X140987000Y-63253000D02*
X140944000Y-63296000D01*
X141312000Y-64000000D02*
X142688000Y-64000000D01*
X141312000Y-65000000D02*
X142688000Y-65000000D01*
X143056000Y-65704000D02*
X143013000Y-65747000D01*
X143295000Y-65943000D02*
X143252000Y-65986000D01*
X145043000Y-66300000D02*
X147120000Y-66300000D01*
X145747000Y-63014000D02*
X145704000Y-63057000D01*
X145987000Y-63253000D02*
X145944000Y-63296000D01*
X146312000Y-64000000D02*
X147120000Y-64000000D01*
X146312000Y-65000000D02*
X147120000Y-65000000D01*
X147120000Y-60380000D02*
X147120000Y-68420000D01*
X122620000Y-65054000D02*
G75*
G02*
X122620139Y-63945528I1879990J554000D01*
G01*
X123946000Y-62620000D02*
G75*
G02*
X125054472Y-62620139I554000J-1880000D01*
G01*
X125054000Y-66380000D02*
G75*
G02*
X123945528Y-66379861I-554000J1879990D01*
G01*
X126380000Y-63946000D02*
G75*
G02*
X126379861Y-65054472I-1880000J-554000D01*
G01*
X131460000Y-64500000D02*
G75*
G02*
X127540000Y-64500000I-1960000J0D01*
G01*
X127540000Y-64500000D02*
G75*
G02*
X131460000Y-64500000I1960000J0D01*
G01*
X136460000Y-64500000D02*
G75*
G02*
X132540000Y-64500000I-1960000J0D01*
G01*
X132540000Y-64500000D02*
G75*
G02*
X136460000Y-64500000I1960000J0D01*
G01*
X141460000Y-64500000D02*
G75*
G02*
X137540000Y-64500000I-1960000J0D01*
G01*
X137540000Y-64500000D02*
G75*
G02*
X141460000Y-64500000I1960000J0D01*
G01*
X146460000Y-64500000D02*
G75*
G02*
X142540000Y-64500000I-1960000J0D01*
G01*
X142540000Y-64500000D02*
G75*
G02*
X146460000Y-64500000I1960000J0D01*
G01*
X124940000Y-69030000D02*
X124060000Y-69030000D01*
X124500000Y-68420000D01*
X124940000Y-69030000D01*
G36*
X124940000Y-69030000D02*
G01*
X124060000Y-69030000D01*
X124500000Y-68420000D01*
X124940000Y-69030000D01*
G37*
%TO.C,D2*%
X164115000Y-94040000D02*
X164115000Y-95960000D01*
X164115000Y-95960000D02*
X166975000Y-95960000D01*
X166975000Y-94040000D02*
X164115000Y-94040000D01*
%TD*%
M02*
