%TF.GenerationSoftware,KiCad,Pcbnew,9.0.0*%
%TF.CreationDate,2025-03-31T12:00:39+05:30*%
%TF.ProjectId,ass kicad,61737320-6b69-4636-9164-2e6b69636164,rev?*%
%TF.SameCoordinates,Original*%
%TF.FileFunction,Copper,L1,Top*%
%TF.FilePolarity,Positive*%
%FSLAX46Y46*%
G04 Gerber Fmt 4.6, Leading zero omitted, Abs format (unit mm)*
G04 Created by KiCad (PCBNEW 9.0.0) date 2025-03-31 12:00:39*
%MOMM*%
%LPD*%
G01*
G04 APERTURE LIST*
G04 Aperture macros list*
%AMRoundRect*
0 Rectangle with rounded corners*
0 $1 Rounding radius*
0 $2 $3 $4 $5 $6 $7 $8 $9 X,Y pos of 4 corners*
0 Add a 4 corners polygon primitive as box body*
4,1,4,$2,$3,$4,$5,$6,$7,$8,$9,$2,$3,0*
0 Add four circle primitives for the rounded corners*
1,1,$1+$1,$2,$3*
1,1,$1+$1,$4,$5*
1,1,$1+$1,$6,$7*
1,1,$1+$1,$8,$9*
0 Add four rect primitives between the rounded corners*
20,1,$1+$1,$2,$3,$4,$5,0*
20,1,$1+$1,$4,$5,$6,$7,0*
20,1,$1+$1,$6,$7,$8,$9,0*
20,1,$1+$1,$8,$9,$2,$3,0*%
%AMRotRect*
0 Rectangle, with rotation*
0 The origin of the aperture is its center*
0 $1 length*
0 $2 width*
0 $3 Rotation angle, in degrees counterclockwise*
0 Add horizontal line*
21,1,$1,$2,0,0,$3*%
%AMFreePoly0*
4,1,6,0.130000,0.115000,0.130000,-0.115000,-0.130000,-0.115000,-0.130000,0.275000,-0.020000,0.275000,0.130000,0.115000,0.130000,0.115000,$1*%
%AMFreePoly1*
4,1,6,0.130000,-0.115000,-0.130000,-0.115000,-0.130000,0.115000,0.020000,0.275000,0.130000,0.275000,0.130000,-0.115000,0.130000,-0.115000,$1*%
G04 Aperture macros list end*
%TA.AperFunction,SMDPad,CuDef*%
%ADD10RoundRect,0.225000X-0.225000X-0.250000X0.225000X-0.250000X0.225000X0.250000X-0.225000X0.250000X0*%
%TD*%
%TA.AperFunction,ComponentPad*%
%ADD11RoundRect,0.250001X-1.149999X-1.149999X1.149999X-1.149999X1.149999X1.149999X-1.149999X1.149999X0*%
%TD*%
%TA.AperFunction,ComponentPad*%
%ADD12C,2.800000*%
%TD*%
%TA.AperFunction,SMDPad,CuDef*%
%ADD13RoundRect,0.208750X-0.208750X-0.431250X0.208750X-0.431250X0.208750X0.431250X-0.208750X0.431250X0*%
%TD*%
%TA.AperFunction,SMDPad,CuDef*%
%ADD14R,2.900000X5.400000*%
%TD*%
%TA.AperFunction,SMDPad,CuDef*%
%ADD15FreePoly0,270.000000*%
%TD*%
%TA.AperFunction,SMDPad,CuDef*%
%ADD16FreePoly1,270.000000*%
%TD*%
%TA.AperFunction,SMDPad,CuDef*%
%ADD17FreePoly0,90.000000*%
%TD*%
%TA.AperFunction,SMDPad,CuDef*%
%ADD18FreePoly1,90.000000*%
%TD*%
%TA.AperFunction,SMDPad,CuDef*%
%ADD19RotRect,0.520000X0.520000X135.000000*%
%TD*%
%TA.AperFunction,ComponentPad*%
%ADD20RoundRect,0.250000X-0.512000X-0.512000X0.512000X-0.512000X0.512000X0.512000X-0.512000X0.512000X0*%
%TD*%
%TA.AperFunction,ComponentPad*%
%ADD21C,1.524000*%
%TD*%
%TA.AperFunction,ComponentPad*%
%ADD22C,3.500000*%
%TD*%
%TA.AperFunction,ComponentPad*%
%ADD23C,1.600000*%
%TD*%
%TA.AperFunction,SMDPad,CuDef*%
%ADD24RoundRect,0.250000X-0.250000X-0.475000X0.250000X-0.475000X0.250000X0.475000X-0.250000X0.475000X0*%
%TD*%
%TA.AperFunction,SMDPad,CuDef*%
%ADD25RoundRect,0.218750X-0.218750X-0.256250X0.218750X-0.256250X0.218750X0.256250X-0.218750X0.256250X0*%
%TD*%
%TA.AperFunction,SMDPad,CuDef*%
%ADD26RoundRect,0.062500X-0.350000X-0.062500X0.350000X-0.062500X0.350000X0.062500X-0.350000X0.062500X0*%
%TD*%
%TA.AperFunction,SMDPad,CuDef*%
%ADD27RoundRect,0.062500X-0.062500X-0.350000X0.062500X-0.350000X0.062500X0.350000X-0.062500X0.350000X0*%
%TD*%
%TA.AperFunction,HeatsinkPad*%
%ADD28C,0.500000*%
%TD*%
%TA.AperFunction,HeatsinkPad*%
%ADD29R,2.700000X2.700000*%
%TD*%
%TA.AperFunction,SMDPad,CuDef*%
%ADD30RoundRect,0.140000X-0.140000X-0.170000X0.140000X-0.170000X0.140000X0.170000X-0.140000X0.170000X0*%
%TD*%
%TA.AperFunction,SMDPad,CuDef*%
%ADD31RoundRect,0.165000X-0.165000X-0.475000X0.165000X-0.475000X0.165000X0.475000X-0.165000X0.475000X0*%
%TD*%
%TA.AperFunction,SMDPad,CuDef*%
%ADD32RoundRect,0.200000X-0.200000X-0.275000X0.200000X-0.275000X0.200000X0.275000X-0.200000X0.275000X0*%
%TD*%
%TA.AperFunction,SMDPad,CuDef*%
%ADD33RoundRect,0.250000X-0.325000X-0.450000X0.325000X-0.450000X0.325000X0.450000X-0.325000X0.450000X0*%
%TD*%
%TA.AperFunction,Conductor*%
%ADD34C,0.200000*%
%TD*%
G04 APERTURE END LIST*
D10*
%TO.P,C6,1*%
%TO.N,+3V3*%
X157450000Y-95500000D03*
%TO.P,C6,2*%
%TO.N,GND*%
X159000000Y-95500000D03*
%TD*%
D11*
%TO.P,J3,1,Pin_1*%
%TO.N,GND*%
X156500000Y-84000000D03*
D12*
%TO.P,J3,2*%
%TO.N,N/C*%
X161500000Y-84000000D03*
%TD*%
D13*
%TO.P,C3,1*%
%TO.N,Net-(U2-EN)*%
X175245000Y-92000000D03*
%TO.P,C3,2*%
%TO.N,GND*%
X176500000Y-92000000D03*
%TD*%
D14*
%TO.P,L1,1,1*%
%TO.N,Net-(C1-Pad1)*%
X115550000Y-78500000D03*
%TO.P,L1,2,2*%
%TO.N,Net-(U2-EN)*%
X125450000Y-78500000D03*
%TD*%
D15*
%TO.P,U2,1,OUT*%
%TO.N,+3V3*%
X153530000Y-117500000D03*
D16*
%TO.P,U2,2,GND*%
%TO.N,GND*%
X153530000Y-118150000D03*
D17*
%TO.P,U2,3,EN*%
%TO.N,Net-(U2-EN)*%
X154500000Y-118150000D03*
D18*
%TO.P,U2,4,IN*%
X154500000Y-117500000D03*
D19*
%TO.P,U2,5,GND*%
%TO.N,GND*%
X154015000Y-117825000D03*
%TD*%
D20*
%TO.P,J2,1,VBUS*%
%TO.N,Net-(D1-A)*%
X114500000Y-98067500D03*
D21*
%TO.P,J2,2,D-*%
%TO.N,unconnected-(J2-D--Pad2)*%
X117000000Y-98067500D03*
%TO.P,J2,3,D+*%
%TO.N,unconnected-(J2-D+-Pad3)*%
X119000000Y-98067500D03*
%TO.P,J2,4,ID*%
%TO.N,unconnected-(J2-ID-Pad4)*%
X121500000Y-98067500D03*
D22*
%TO.P,J2,5,GND*%
%TO.N,GND*%
X111430000Y-100777500D03*
X124570000Y-100777500D03*
%TD*%
D23*
%TO.P,TH1,1*%
%TO.N,Net-(U1-TS)*%
X151000000Y-68000000D03*
%TO.P,TH1,2*%
%TO.N,GND*%
X160000000Y-68000000D03*
%TD*%
D24*
%TO.P,C5,1*%
%TO.N,Net-(U1-REGN)*%
X142600000Y-112000000D03*
%TO.P,C5,2*%
%TO.N,GND*%
X144500000Y-112000000D03*
%TD*%
D25*
%TO.P,D1,1,K*%
%TO.N,Net-(D1-K)*%
X168925000Y-89000000D03*
%TO.P,D1,2,A*%
%TO.N,Net-(D1-A)*%
X170500000Y-89000000D03*
%TD*%
D26*
%TO.P,U1,1,VBUS*%
%TO.N,Net-(D1-K)*%
X129575000Y-114500000D03*
%TO.P,U1,2,D+*%
%TO.N,unconnected-(U1-D+-Pad2)*%
X129575000Y-115000000D03*
%TO.P,U1,3,D-*%
%TO.N,unconnected-(U1-D--Pad3)*%
X129575000Y-115500000D03*
%TO.P,U1,4,STAT*%
%TO.N,unconnected-(U1-STAT-Pad4)*%
X129575000Y-116000000D03*
%TO.P,U1,5,SCL*%
%TO.N,unconnected-(U1-SCL-Pad5)*%
X129575000Y-116500000D03*
%TO.P,U1,6,SDA*%
%TO.N,unconnected-(U1-SDA-Pad6)*%
X129575000Y-117000000D03*
D27*
%TO.P,U1,7,INT*%
%TO.N,unconnected-(U1-INT-Pad7)*%
X130287500Y-117712500D03*
%TO.P,U1,8,OTG*%
%TO.N,GND*%
X130787500Y-117712500D03*
%TO.P,U1,9,~{CE}*%
X131287500Y-117712500D03*
%TO.P,U1,10,ILIM*%
X131787500Y-117712500D03*
%TO.P,U1,11,TS*%
%TO.N,Net-(U1-TS)*%
X132287500Y-117712500D03*
%TO.P,U1,12,~{QON}*%
%TO.N,unconnected-(U1-~{QON}-Pad12)*%
X132787500Y-117712500D03*
D26*
%TO.P,U1,13,BAT*%
%TO.N,unconnected-(U1-BAT-Pad13)*%
X133500000Y-117000000D03*
%TO.P,U1,14,BAT*%
%TO.N,unconnected-(U1-BAT-Pad13)_1*%
X133500000Y-116500000D03*
%TO.P,U1,15,SYS*%
%TO.N,Net-(U2-EN)*%
X133500000Y-116000000D03*
%TO.P,U1,16,SYS*%
X133500000Y-115500000D03*
%TO.P,U1,17,PGND*%
%TO.N,GND*%
X133500000Y-115000000D03*
%TO.P,U1,18,PGND*%
X133500000Y-114500000D03*
D27*
%TO.P,U1,19,SW*%
%TO.N,Net-(C1-Pad1)*%
X132787500Y-113787500D03*
%TO.P,U1,20,SW*%
X132287500Y-113787500D03*
%TO.P,U1,21,BTST*%
%TO.N,Net-(U1-BTST)*%
X131787500Y-113787500D03*
%TO.P,U1,22,REGN*%
%TO.N,Net-(U1-REGN)*%
X131287500Y-113787500D03*
%TO.P,U1,23,PMID*%
%TO.N,unconnected-(U1-PMID-Pad23)*%
X130787500Y-113787500D03*
%TO.P,U1,24,DSEL*%
%TO.N,unconnected-(U1-DSEL-Pad24)*%
X130287500Y-113787500D03*
D28*
%TO.P,U1,25,PGND*%
%TO.N,GND*%
X130437500Y-114650000D03*
X130437500Y-115750000D03*
X130437500Y-116850000D03*
X131537500Y-114650000D03*
X131537500Y-115750000D03*
D29*
X131537500Y-115750000D03*
D28*
X131537500Y-116850000D03*
X132637500Y-114650000D03*
X132637500Y-115750000D03*
X132637500Y-116850000D03*
%TD*%
D30*
%TO.P,C2,1*%
%TO.N,Net-(U2-EN)*%
X167540000Y-107000000D03*
%TO.P,C2,2*%
%TO.N,GND*%
X168500000Y-107000000D03*
%TD*%
D24*
%TO.P,C4,1*%
%TO.N,Net-(U2-EN)*%
X129600000Y-75500000D03*
%TO.P,C4,2*%
%TO.N,GND*%
X131500000Y-75500000D03*
%TD*%
D31*
%TO.P,C1,1*%
%TO.N,Net-(C1-Pad1)*%
X157920000Y-104000000D03*
%TO.P,C1,2*%
%TO.N,Net-(U1-BTST)*%
X159000000Y-104000000D03*
%TD*%
D32*
%TO.P,R1,1*%
%TO.N,Net-(U1-TS)*%
X151850000Y-103500000D03*
%TO.P,R1,2*%
%TO.N,Net-(U1-REGN)*%
X153500000Y-103500000D03*
%TD*%
D11*
%TO.P,J4,1,Pin_1*%
%TO.N,Net-(D2-A)*%
X124500000Y-64500000D03*
D12*
%TO.P,J4,2*%
%TO.N,N/C*%
X129500000Y-64500000D03*
%TO.P,J4,3*%
X134500000Y-64500000D03*
%TO.P,J4,4*%
X139500000Y-64500000D03*
%TO.P,J4,5*%
X144500000Y-64500000D03*
%TD*%
D33*
%TO.P,D2,1,K*%
%TO.N,Net-(D1-K)*%
X164950000Y-95000000D03*
%TO.P,D2,2,A*%
%TO.N,Net-(D2-A)*%
X167000000Y-95000000D03*
%TD*%
D34*
%TO.N,*%
X134000000Y-96000000D02*
X135100000Y-96000000D01*
X135100000Y-96000000D02*
X140839801Y-101739801D01*
%TO.N,Net-(C1-Pad1)*%
X157920000Y-115407752D02*
X157920000Y-104000000D01*
X109379000Y-99927947D02*
X114069447Y-95237500D01*
X151622150Y-66498000D02*
X150377850Y-66498000D01*
X126251947Y-118500000D02*
X109379000Y-101627053D01*
X154099752Y-119228000D02*
X131728000Y-119228000D01*
X128000000Y-90950000D02*
X115550000Y-78500000D01*
X128000000Y-95237500D02*
X128000000Y-90950000D01*
X131500000Y-119000000D02*
X127000000Y-119000000D01*
X157920000Y-115407752D02*
X154099752Y-119228000D01*
X132287500Y-113787500D02*
X132787500Y-113787500D01*
X109379000Y-101627053D02*
X109379000Y-99927947D01*
X131728000Y-119228000D02*
X131500000Y-119000000D01*
X157920000Y-115407752D02*
X169663500Y-103664252D01*
X114069447Y-95237500D02*
X128000000Y-95237500D01*
X127000000Y-119000000D02*
X126500000Y-118500000D01*
X169663500Y-103664252D02*
X169663500Y-84539350D01*
X126500000Y-118500000D02*
X126251947Y-118500000D01*
X169663500Y-84539350D02*
X151622150Y-66498000D01*
%TO.N,Net-(U2-EN)*%
X125450000Y-87832900D02*
X130808550Y-93191450D01*
X125450000Y-78500000D02*
X125450000Y-87832900D01*
X130808550Y-93191450D02*
X131058550Y-93441450D01*
X175245000Y-92000000D02*
X175245000Y-99295000D01*
X130808550Y-93191450D02*
X130808550Y-93691450D01*
X133928298Y-115500000D02*
X141600000Y-107828298D01*
X131058550Y-93441450D02*
X132287500Y-94670400D01*
X175245000Y-99295000D02*
X167540000Y-107000000D01*
X130808550Y-93691450D02*
X129262500Y-95237500D01*
X129262500Y-95237500D02*
X128401000Y-95237500D01*
X141600000Y-107828298D02*
X141600000Y-102500000D01*
X133500000Y-115500000D02*
X133928298Y-115500000D01*
%TO.N,GND*%
X128000000Y-97460500D02*
X128000000Y-96039500D01*
X130713500Y-114926000D02*
X130713500Y-118214798D01*
X127000000Y-100500000D02*
X127960500Y-99539500D01*
X130713500Y-118214798D02*
X130502298Y-118426000D01*
X127960500Y-97500000D02*
X128000000Y-97460500D01*
X131861500Y-118281898D02*
X131861500Y-116210202D01*
X153013000Y-118827000D02*
X132406602Y-118827000D01*
X131500000Y-92539500D02*
X131111850Y-92927650D01*
X127000000Y-115353298D02*
X127000000Y-100500000D01*
X160000000Y-68000000D02*
X160000000Y-73000000D01*
X176500000Y-92000000D02*
X176500000Y-99000000D01*
X130437500Y-114650000D02*
X130713500Y-114926000D01*
X128000000Y-96039500D02*
X127500000Y-96039500D01*
X130072702Y-118426000D02*
X127000000Y-115353298D01*
X130502298Y-118426000D02*
X130072702Y-118426000D01*
X132406602Y-118827000D02*
X131861500Y-118281898D01*
X168500000Y-107000000D02*
X167500000Y-108000000D01*
X131861500Y-116210202D02*
X132997702Y-115074000D01*
X113860000Y-100500000D02*
X127000000Y-100500000D01*
X154015000Y-117825000D02*
X153013000Y-118827000D01*
X159629175Y-73370825D02*
X160879175Y-74620825D01*
X165894852Y-108000000D02*
X156697426Y-117197426D01*
X167500000Y-108000000D02*
X165894852Y-108000000D01*
X159000000Y-95500000D02*
X159000000Y-101500000D01*
X176500000Y-99000000D02*
X168500000Y-107000000D01*
X141426000Y-115074000D02*
X144500000Y-112000000D01*
X160000000Y-73000000D02*
X159629175Y-73370825D01*
X127960500Y-99539500D02*
X127960500Y-97500000D01*
X159000000Y-101500000D02*
X165130326Y-107630326D01*
X131500000Y-75500000D02*
X131500000Y-92539500D01*
%TO.N,Net-(U1-REGN)*%
X150324000Y-104276000D02*
X151449000Y-104276000D01*
X142600000Y-112000000D02*
X150324000Y-104276000D01*
%TO.N,+3V3*%
X157450000Y-103166404D02*
X153530000Y-107086404D01*
X153530000Y-107086404D02*
X153530000Y-117500000D01*
X157450000Y-95500000D02*
X157450000Y-103166404D01*
%TO.N,Net-(D1-A)*%
X114500000Y-98067500D02*
X116929000Y-95638500D01*
X116929000Y-95638500D02*
X132287500Y-95638500D01*
%TO.N,Net-(D1-K)*%
X129575000Y-114500000D02*
X129575000Y-113571702D01*
X168925000Y-89000000D02*
X168925000Y-84367950D01*
X132688500Y-110458202D02*
X129575000Y-113571702D01*
X149899000Y-93247702D02*
X149899000Y-67543950D01*
X164950000Y-95000000D02*
X164950000Y-92975000D01*
X150543950Y-66899000D02*
X132688500Y-84754450D01*
X150543950Y-66899000D02*
X151456050Y-66899000D01*
X168925000Y-84367950D02*
X151456050Y-66899000D01*
X149899000Y-67543950D02*
X150543950Y-66899000D01*
X164950000Y-92975000D02*
X168925000Y-89000000D01*
X151456050Y-66899000D02*
X164950000Y-80392950D01*
X129575000Y-113571702D02*
X149899000Y-93247702D01*
X132688500Y-84754450D02*
X132688500Y-110458202D01*
X129575000Y-113571702D02*
X129575000Y-114000000D01*
X164950000Y-80392950D02*
X164950000Y-95000000D01*
%TO.N,Net-(D2-A)*%
X124500000Y-64500000D02*
X126331900Y-66331900D01*
X126331900Y-66331900D02*
X149976850Y-66331900D01*
X171238500Y-85547250D02*
X171238500Y-93826000D01*
X170064500Y-93826000D02*
X170064500Y-95000000D01*
X150211750Y-66097000D02*
X151788250Y-66097000D01*
X151788250Y-66097000D02*
X171238500Y-85547250D01*
X149976850Y-66331900D02*
X150211750Y-66097000D01*
X171238500Y-93826000D02*
X170064500Y-93826000D01*
%TO.N,Net-(U1-TS)*%
X139585160Y-118426000D02*
X151850000Y-106161160D01*
X132287500Y-118140798D02*
X132572702Y-118426000D01*
X151850000Y-103500000D02*
X151850000Y-102350000D01*
X132572702Y-118426000D02*
X139585160Y-118426000D01*
X151000000Y-101500000D02*
X151000000Y-68000000D01*
X151850000Y-106161160D02*
X151850000Y-103500000D01*
X132287500Y-117712500D02*
X132287500Y-118140798D01*
X151850000Y-102350000D02*
X151000000Y-101500000D01*
%TD*%
M02*
